<?xml version="1.0" encoding="UTF-8" standalone="no"?>
<!-- Created with Inkscape (http://www.inkscape.org/) -->
<svg xmlns:dc="http://purl.org/dc/elements/1.1/" xmlns:cc="http://creativecommons.org/ns#" xmlns:rdf="http://www.w3.org/1999/02/22-rdf-syntax-ns#" xmlns:svg="http://www.w3.org/2000/svg" xmlns="http://www.w3.org/2000/svg" xmlns:xlink="http://www.w3.org/1999/xlink" xmlns:sodipodi="http://sodipodi.sourceforge.net/DTD/sodipodi-0.dtd" xmlns:inkscape="http://www.inkscape.org/namespaces/inkscape" id="svg2453" sodipodi:version="0.32" inkscape:version="0.46" width="295.10516" height="221.16786" xml:space="preserve" sodipodi:docname="EUMETSAT_logo.svg" version="1.0" inkscape:output_extension="org.inkscape.output.svg.inkscape"><metadata id="metadata2458"><rdf:RDF><cc:Work rdf:about=""><dc:format>image/svg+xml</dc:format><dc:type rdf:resource="http://purl.org/dc/dcmitype/StillImage"/></cc:Work></rdf:RDF></metadata><defs id="defs2456"><inkscape:perspective sodipodi:type="inkscape:persp3d" inkscape:vp_x="0 : 526.18109 : 1" inkscape:vp_y="0 : 1000 : 0" inkscape:vp_z="744.09448 : 526.18109 : 1" inkscape:persp3d-origin="372.04724 : 350.78739 : 1" id="perspective2460"/><clipPath clipPathUnits="userSpaceOnUse" id="clipPath2468"><path d="M 0,0 L 595.276,0 L 595.276,841.89 L 0,841.89 L 0,0 z" id="path2470"/></clipPath><clipPath clipPathUnits="userSpaceOnUse" id="clipPath2476"><path d="M -9.46048,851.456 L 604.78,851.456 L 604.78,-9.50394 L -9.46048,-9.50394 L -9.46048,851.456 z" id="path2478"/></clipPath><clipPath clipPathUnits="userSpaceOnUse" id="clipPath2494"><path d="M 218.268,810.5 L 218.268,490.1 L 227.002,490.1 C 301.548,535.059 359.075,586.528 399.907,647.345 L 399.907,647.345 C 422.383,669.424 442.01,692.891 458.803,717.946 L 458.803,717.946 C 472.658,731.582 485.428,745.745 497.118,760.484 L 497.118,760.484 L 497.118,810.5 L 218.268,810.5 z" id="path2496"/></clipPath><clipPath clipPathUnits="userSpaceOnUse" id="clipPath2508"><path d="M 412.441,841.89 L 412.441,660.115 C 429.757,678.422 445.208,697.664 458.803,717.946 L 458.803,717.946 C 481.051,739.842 500.504,763.099 517.173,787.914 L 517.173,787.914 C 534.621,805.044 550.372,822.999 564.401,841.89 L 564.401,841.89 L 412.441,841.89 z" id="path2510"/></clipPath><clipPath clipPathUnits="userSpaceOnUse" id="clipPath2522"><path d="M 51.8,742.829 L 51.8,448.819 L 150.135,448.819 C 206.801,476.05 255.934,505.739 297.638,538.711 L 297.638,538.711 L 297.638,742.829 L 51.8,742.829 z" id="path2524"/></clipPath><clipPath clipPathUnits="userSpaceOnUse" id="clipPath2536"><path d="M 0,686.095 L 0,385.937 C 20.283,394.204 41.158,402.533 62.677,410.96 L 62.677,410.96 C 102.301,426.477 139.028,442.788 172.859,460.079 L 172.859,460.079 L 172.859,686.095 L 0,686.095 z" id="path2538"/></clipPath><clipPath clipPathUnits="userSpaceOnUse" id="clipPath2550"><path d="M 0,0 L 595.276,0 L 595.276,841.89 L 0,841.89 L 0,0 z" id="path2552"/></clipPath><clipPath clipPathUnits="userSpaceOnUse" id="clipPath2558"><path d="M -681.46,1197.95 L 603.685,1197.95 L 603.685,-446.324 L -681.46,-446.324 L -681.46,1197.95 z" id="path2560"/></clipPath><clipPath clipPathUnits="userSpaceOnUse" id="clipPath2574"><path d="M -740.157,1127.63 L 546.895,1127.63 L 546.895,-517.927 L -740.157,-517.927 L -740.157,1127.63 z" id="path2576"/></clipPath><clipPath clipPathUnits="userSpaceOnUse" id="clipPath2590"><path d="M -798.855,1057.3 L 488.2,1057.3 L 488.2,-588.258 L -798.855,-588.258 L -798.855,1057.3 z" id="path2592"/></clipPath><clipPath clipPathUnits="userSpaceOnUse" id="clipPath2606"><path d="M -9.44981,877.85 L 584.937,877.85 L 584.937,381.482 L -9.44981,381.482 L -9.44981,877.85 z" id="path2608"/></clipPath><clipPath clipPathUnits="userSpaceOnUse" id="clipPath2610"><path d="M 583.937,850.394 L 583.937,876.85 L -8.45,876.85 L -8.45,382.482 C 14.475,391.883 38.157,401.358 62.677,410.96 C 313.476,509.174 447.809,638.95 471.618,850.394 L 583.937,850.394 z" id="path2612"/></clipPath><clipPath clipPathUnits="userSpaceOnUse" id="clipPath2614"><path d="M -681.46,1197.95 L 603.685,1197.95 L 603.685,-446.324 L -681.46,-446.324 L -681.46,1197.95 z" id="path2616"/></clipPath><clipPath clipPathUnits="userSpaceOnUse" id="clipPath2618"><path d="M -740.157,1127.63 L 546.895,1127.63 L 546.895,-517.927 L -740.157,-517.927 L -740.157,1127.63 z" id="path2620"/></clipPath><clipPath clipPathUnits="userSpaceOnUse" id="clipPath2622"><path d="M -798.855,1057.3 L 488.2,1057.3 L 488.2,-588.258 L -798.855,-588.258 L -798.855,1057.3 z" id="path2624"/></clipPath><clipPath clipPathUnits="userSpaceOnUse" id="clipPath2678"><path d="M -9.50394,851.394 L 518.574,851.394 L 518.574,427.127 L -9.50394,427.127 L -9.50394,851.394 z" id="path2680"/></clipPath><clipPath clipPathUnits="userSpaceOnUse" id="clipPath2682"><path d="M 517.574,850.394 L -8.504,850.394 L -8.504,428.127 C 31.994,445.612 75.264,463.233 121.373,481.288 C 343.096,568.116 473.797,679.609 517.574,850.394" id="path2684"/></clipPath><clipPath clipPathUnits="userSpaceOnUse" id="clipPath2686"><path d="M -681.46,1197.95 L 603.685,1197.95 L 603.685,-446.324 L -681.46,-446.324 L -681.46,1197.95 z" id="path2688"/></clipPath><clipPath clipPathUnits="userSpaceOnUse" id="clipPath2690"><path d="M -740.157,1127.63 L 546.895,1127.63 L 546.895,-517.927 L -740.157,-517.927 L -740.157,1127.63 z" id="path2692"/></clipPath><clipPath clipPathUnits="userSpaceOnUse" id="clipPath2694"><path d="M -798.855,1057.3 L 488.2,1057.3 L 488.2,-588.258 L -798.855,-588.258 L -798.855,1057.3 z" id="path2696"/></clipPath><clipPath clipPathUnits="userSpaceOnUse" id="clipPath2750"><path d="M -9.50394,851.394 L 552.835,851.394 L 552.835,471.263 L -9.50394,471.263 L -9.50394,851.394 z" id="path2752"/></clipPath><clipPath clipPathUnits="userSpaceOnUse" id="clipPath2754"><path d="M 551.835,850.394 L -8.504,850.394 L -8.504,472.263 C 48.125,498.409 110.88,524.524 180.069,551.617 C 369.79,625.912 492.832,718.288 551.835,850.394" id="path2756"/></clipPath><clipPath clipPathUnits="userSpaceOnUse" id="clipPath2758"><path d="M -681.46,1197.95 L 603.685,1197.95 L 603.685,-446.324 L -681.46,-446.324 L -681.46,1197.95 z" id="path2760"/></clipPath><clipPath clipPathUnits="userSpaceOnUse" id="clipPath2762"><path d="M -740.157,1127.63 L 546.895,1127.63 L 546.895,-517.927 L -740.157,-517.927 L -740.157,1127.63 z" id="path2764"/></clipPath><clipPath clipPathUnits="userSpaceOnUse" id="clipPath2766"><path d="M -798.855,1057.3 L 488.2,1057.3 L 488.2,-588.258 L -798.855,-588.258 L -798.855,1057.3 z" id="path2768"/></clipPath><clipPath clipPathUnits="userSpaceOnUse" id="clipPath2822"><path d="M -9.50394,851.394 L 571.555,851.394 L 571.555,513.336 L -9.50394,513.336 L -9.50394,851.394 z" id="path2824"/></clipPath><clipPath clipPathUnits="userSpaceOnUse" id="clipPath2826"><path d="M 570.555,850.394 L -8.504,850.394 L -8.504,514.336 C 62.492,550.087 144.705,585.114 238.764,621.945 C 392.885,682.299 503.015,754.576 570.555,850.394" id="path2828"/></clipPath><clipPath clipPathUnits="userSpaceOnUse" id="clipPath2830"><path d="M -681.46,1197.95 L 603.685,1197.95 L 603.685,-446.324 L -681.46,-446.324 L -681.46,1197.95 z" id="path2832"/></clipPath><clipPath clipPathUnits="userSpaceOnUse" id="clipPath2834"><path d="M -740.157,1127.63 L 546.895,1127.63 L 546.895,-517.927 L -740.157,-517.927 L -740.157,1127.63 z" id="path2836"/></clipPath><clipPath clipPathUnits="userSpaceOnUse" id="clipPath2838"><path d="M -798.855,1057.3 L 488.2,1057.3 L 488.2,-588.258 L -798.855,-588.258 L -798.855,1057.3 z" id="path2840"/></clipPath><clipPath clipPathUnits="userSpaceOnUse" id="clipPath2894"><path d="M -9.50394,851.394 L 568.747,851.394 L 568.747,550.077 L -9.50394,550.077 L -9.50394,851.394 z" id="path2896"/></clipPath><clipPath clipPathUnits="userSpaceOnUse" id="clipPath2898"><path d="M 297.46,692.273 C 411.414,736.898 501.322,788.039 567.747,850.394 L -8.504,850.394 L -8.504,551.077 C 74.817,599.327 176.431,644.881 297.46,692.273" id="path2900"/></clipPath><clipPath clipPathUnits="userSpaceOnUse" id="clipPath2902"><path d="M -681.46,1197.95 L 603.685,1197.95 L 603.685,-446.324 L -681.46,-446.324 L -681.46,1197.95 z" id="path2904"/></clipPath><clipPath clipPathUnits="userSpaceOnUse" id="clipPath2906"><path d="M -740.157,1127.63 L 546.895,1127.63 L 546.895,-517.927 L -740.157,-517.927 L -740.157,1127.63 z" id="path2908"/></clipPath><clipPath clipPathUnits="userSpaceOnUse" id="clipPath2910"><path d="M -798.855,1057.3 L 488.2,1057.3 L 488.2,-588.258 L -798.855,-588.258 L -798.855,1057.3 z" id="path2912"/></clipPath><clipPath clipPathUnits="userSpaceOnUse" id="clipPath2970"><path d="M 0,841.89 L 0,593.76 C 91.385,652.058 209.383,705.129 356.155,762.602 L 356.155,762.602 C 418.089,786.854 472.909,813.032 520.726,841.89 L 520.726,841.89 L 0,841.89 z" id="path2972"/></clipPath><clipPath clipPathUnits="userSpaceOnUse" id="clipPath2978"><path d="M -681.46,1197.95 L 603.685,1197.95 L 603.685,-446.324 L -681.46,-446.324 L -681.46,1197.95 z" id="path2980"/></clipPath><clipPath clipPathUnits="userSpaceOnUse" id="clipPath2994"><path d="M -740.157,1127.63 L 546.895,1127.63 L 546.895,-517.927 L -740.157,-517.927 L -740.157,1127.63 z" id="path2996"/></clipPath><clipPath clipPathUnits="userSpaceOnUse" id="clipPath3010"><path d="M -798.855,1057.3 L 488.2,1057.3 L 488.2,-588.258 L -798.855,-588.258 L -798.855,1057.3 z" id="path3012"/></clipPath><clipPath clipPathUnits="userSpaceOnUse" id="clipPath3026"><path d="M 78.189,749.742 L 196.056,749.742 L 196.056,778.907 L 78.189,778.907 L 78.189,749.742 z" id="path3028"/></clipPath><radialGradient fx="0" fy="0" cx="0" cy="0" r="1" gradientUnits="userSpaceOnUse" gradientTransform="matrix(9.0340881,0,0,-9.0340881,88.894043,769.18555)" spreadMethod="pad" id="radialGradient3074"><stop style="stop-opacity:1;stop-color:#edeff2" offset="0" id="stop3076"/><stop style="stop-opacity:1;stop-color:#56778e" offset="1" id="stop3078"/></radialGradient><clipPath clipPathUnits="userSpaceOnUse" id="clipPath3086"><path d="M 0,0 L 595.276,0 L 595.276,841.89 L 0,841.89 L 0,0 z" id="path3088"/></clipPath><radialGradient inkscape:collect="always" xlink:href="#radialGradient3074" id="radialGradient3109" gradientUnits="userSpaceOnUse" gradientTransform="matrix(9.0340881,0,0,-9.0340881,88.894043,769.18555)" spreadMethod="pad" cx="0" cy="0" fx="0" fy="0" r="1"/><inkscape:perspective id="perspective3166" inkscape:persp3d-origin="372.04724 : 350.78739 : 1" inkscape:vp_z="744.09448 : 526.18109 : 1" inkscape:vp_y="0 : 1000 : 0" inkscape:vp_x="0 : 526.18109 : 1" sodipodi:type="inkscape:persp3d"/></defs><sodipodi:namedview inkscape:window-height="753" inkscape:window-width="1280" inkscape:pageshadow="2" inkscape:pageopacity="0.0" guidetolerance="10.0" gridtolerance="10.0" objecttolerance="10.0" borderopacity="1.0" bordercolor="#666666" pagecolor="#ffffff" id="base" showgrid="false" inkscape:zoom="1" inkscape:cx="372.04749" inkscape:cy="193.665" inkscape:window-x="-4" inkscape:window-y="-4" inkscape:current-layer="g2462"/><g id="g2462" inkscape:groupmode="layer" inkscape:label="pdf_ar_2008" transform="matrix(1.25,0,0,-1.25,-249.79958,1302.1213)"><g id="g3022" transform="matrix(2.7784807,0,0,2.7784807,-96.089517,-1236.3586)"><g id="g3024" clip-path="url(#clipPath3026)"><g id="g3030" transform="translate(175.17461,761.4901)"><path d="M 0,0 C 0.316,1.129 0.772,2.437 0.989,3.507 C 1.188,2.437 1.623,1.108 1.921,0 L 0,0 z M 2.435,6.454 L -0.258,6.454 L -4.178,-4.217 L -1.386,-4.217 L -0.634,-1.96 L 2.513,-1.96 L 3.324,-4.217 L 6.116,-4.217 L 2.435,6.454 z" style="fill:#002d69;fill-opacity:1;fill-rule:nonzero;stroke:none" id="path3032"/></g><g id="g3034" transform="translate(166.7175,763.7941)"><path d="M 0,0 L -1.397,0.328 C -2.27,0.542 -2.483,0.756 -2.483,1.26 C -2.483,1.843 -1.9,2.211 -1.087,2.211 C -0.271,2.211 0.641,1.96 1.631,1.435 L 2.853,3.24 C 1.882,3.88 0.27,4.307 -1.145,4.307 C -3.648,4.307 -5.376,2.91 -5.376,0.989 C -5.376,0.407 -5.239,-0.116 -4.947,-0.621 C -4.54,-1.319 -3.803,-1.824 -2.678,-2.095 L -1.357,-2.407 C -0.406,-2.619 0,-3.008 0,-3.571 C 0,-4.288 -0.62,-4.599 -1.843,-4.599 C -2.988,-4.599 -3.86,-4.288 -4.947,-3.823 L -5.802,-5.802 C -4.54,-6.403 -3.24,-6.674 -1.979,-6.674 C 0.99,-6.674 2.95,-5.239 2.95,-3.028 C 2.95,-1.436 1.824,-0.428 0,0" style="fill:#002d69;fill-opacity:1;fill-rule:nonzero;stroke:none" id="path3036"/></g><g id="g3038" transform="translate(135.97971,767.9041)"><path d="M 0,0 L -1.407,-4.85 C -1.584,-5.464 -1.763,-6.197 -1.862,-6.85 C -1.982,-6.177 -2.098,-5.661 -2.298,-4.95 L -3.645,0 L -6.99,0 L -8.139,-10.631 L -5.466,-10.631 L -5.148,-5.444 C -5.11,-4.791 -5.051,-3.918 -5.029,-3.187 C -4.872,-4.038 -4.656,-4.969 -4.516,-5.444 L -3.069,-10.631 L -0.814,-10.631 L 0.772,-5.266 C 0.929,-4.711 1.167,-4.018 1.305,-3.404 C 1.344,-4.137 1.384,-4.771 1.424,-5.325 L 1.78,-10.631 L 4.373,-10.631 L 3.285,0 L 0,0 z" style="fill:#002d69;fill-opacity:1;fill-rule:nonzero;stroke:none" id="path3040"/></g><g id="g3042" transform="translate(122.8819,761.1931)"><path d="M 0,0 C 0,-1.109 -0.158,-1.386 -0.375,-1.584 C -0.655,-1.822 -1.087,-2.019 -1.622,-2.019 C -2.237,-2.019 -2.733,-1.822 -3.007,-1.446 C -3.206,-1.188 -3.228,-0.851 -3.228,-0.217 L -3.228,6.712 L -5.92,6.712 L -5.92,-0.514 C -5.92,-1.506 -5.802,-2.178 -5.346,-2.772 C -4.651,-3.662 -3.286,-4.117 -1.523,-4.117 C 0.139,-4.117 1.227,-3.583 1.803,-3.028 C 2.396,-2.455 2.693,-1.921 2.693,-0.358 L 2.693,6.712 L 0,6.712 L 0,0 z" style="fill:#002d69;fill-opacity:1;fill-rule:nonzero;stroke:none" id="path3044"/></g><g id="g3046" transform="translate(181.69279,767.9041)"><path d="M 0,0 L 0,-2.098 L 2.751,-2.098 L 2.751,-10.631 L 5.465,-10.631 L 5.465,-2.098 L 7.564,-2.098 C 8.198,-1.683 8.631,0 8.631,0 L 0,0 z" style="fill:#002d69;fill-opacity:1;fill-rule:nonzero;stroke:none" id="path3048"/></g><g id="g3050" transform="translate(110.3351,761.7901)"><path d="M 0,0 L 3.091,0 L 3.091,2.082 L -0.021,2.082 L -0.021,4.063 L 3.084,4.063 C 3.555,4.426 3.909,5.462 4.044,5.913 L 4.082,6.124 L -2.675,6.124 L -2.675,-4.518 L 4.202,-4.518 L 4.202,-2.358 L 0,-2.358 L 0,0 z" style="fill:#002d69;fill-opacity:1;fill-rule:nonzero;stroke:none" id="path3052"/></g><g id="g3054" transform="translate(145.6667,761.7901)"><path d="M 0,0 L 3.091,0 L 3.091,2.082 L -0.021,2.082 L -0.021,4.063 L 3.084,4.063 C 3.555,4.426 3.909,5.462 4.044,5.913 L 4.082,6.124 L -2.676,6.124 L -2.676,-4.518 L 4.202,-4.518 L 4.202,-2.358 L 0,-2.358 L 0,0 z" style="fill:#002d69;fill-opacity:1;fill-rule:nonzero;stroke:none" id="path3056"/></g><g id="g3058" transform="translate(151.537,767.9041)"><path d="M 0,0 L 0,-2.098 L 2.752,-2.098 L 2.752,-10.631 L 5.465,-10.631 L 5.465,-2.098 L 7.564,-2.098 C 8.198,-1.683 8.631,0 8.631,0 L 0,0 z" style="fill:#002d69;fill-opacity:1;fill-rule:nonzero;stroke:none" id="path3060"/></g></g></g><g id="g3062" transform="matrix(6.8350816,0,0,6.8350816,-317.57746,-4246.2237)"><g id="g3064"><g id="g3070"><g id="g3072"><path d="M 84.013,764.359 C 84.013,759.424 88.013,755.425 92.947,755.425 L 92.947,755.425 C 94.997,755.425 96.883,756.117 98.391,757.277 L 98.391,757.277 L 88.076,757.277 C 88.36,757.473 90.651,759.065 93.075,761.178 L 93.075,761.178 L 101.296,761.178 C 101.503,761.72 101.658,762.289 101.757,762.877 L 101.757,762.877 L 94.922,762.877 C 96.008,763.939 97.022,765.064 97.784,766.167 L 97.784,766.167 L 101.697,766.167 C 101.577,766.758 101.397,767.326 101.165,767.867 L 101.165,767.867 L 98.748,767.867 C 99.326,769.221 99.338,770.468 98.403,771.43 L 98.403,771.43 C 96.894,772.597 95.002,773.293 92.947,773.293 L 92.947,773.293 C 88.013,773.293 84.013,769.293 84.013,764.359" style="fill:url(#radialGradient3109);stroke:none" id="path3080"/></g></g></g></g></g></svg>